<svg width="219" height="221" viewBox="0 0 219 221" fill="none" xmlns="http://www.w3.org/2000/svg">
<g filter="url(#filter0_d)">
<path fill-rule="evenodd" clip-rule="evenodd" d="M26.4809 20.1396C14.0581 20.1396 4 30.1977 4 42.6195C4 49.8312 7.44244 56.1922 12.7195 60.309V182.496C12.7195 199.257 26.2963 212.856 43.0567 212.856H175.326C192.086 212.856 205.686 199.256 205.686 182.496V60.2864C210.951 56.1695 214.405 49.8219 214.405 42.6195C214.405 30.1977 204.348 20.1396 191.925 20.1396H26.4809Z" fill="#1D6471"/>
<path fill-rule="evenodd" clip-rule="evenodd" d="M160.493 0.0344461C155.708 0.185013 150.519 0.868774 145.231 2.07331C135.453 4.30088 127.223 8.0836 121.087 12.4016C117.688 9.94094 113.471 8.32288 108.588 8.32288C103.648 8.32288 99.3075 9.95538 95.8918 12.4676C90.1414 8.41464 82.6863 4.85158 73.8534 2.73127C53.7754 -2.08688 35.829 1.93924 33.7231 11.6787C31.6182 21.4171 46.1438 33.1747 66.2219 37.9928C74.5257 39.9853 82.1748 40.1781 88.7863 39.3748V59.8333C93.3291 60.2428 97.4388 61.2328 100.76 62.9911C104.293 64.8629 107.16 67.3947 109.312 70.2936C111.439 67.373 114.267 64.8598 117.798 62.9911C120.794 61.406 124.46 60.5336 128.456 60.0313V38.5848C135.621 39.5645 144.135 39.4274 153.323 37.3349C174.475 32.5167 189.816 20.6941 187.598 10.9547C185.934 3.65014 174.85 -0.420349 160.493 0.0344461Z" fill="#9FE7E5"/>
<path fill-rule="evenodd" clip-rule="evenodd" d="M128.415 179.976C124.867 181.754 121.609 183.59 117.691 185.282C117.658 185.296 117.658 185.314 117.625 185.327C114.603 186.671 111.381 187.913 109.271 187.913C107.103 187.913 103.93 186.671 100.849 185.327C100.817 185.314 100.816 185.296 100.784 185.282C96.3777 183.379 92.6785 181.306 88.7452 179.295V209.003C88.7452 210.391 89.264 211.629 89.7322 212.905H127.362C127.831 211.628 128.415 210.392 128.415 209.003V179.976Z" fill="#9FE6E5"/>
<path fill-rule="evenodd" clip-rule="evenodd" d="M85.4367 75.6294C67.4697 75.6294 52.017 89.4342 52.017 110.431C52.017 129.118 66.6013 147.723 88.7914 164.178C92.7247 167.095 96.425 170.102 100.831 172.862C100.864 172.882 100.864 172.907 100.897 172.928C103.976 174.876 107.149 176.678 109.317 176.678C111.427 176.678 114.649 174.876 117.671 172.928C117.704 172.907 117.704 172.882 117.737 172.862C121.655 170.407 124.914 167.744 128.461 165.165C151.407 148.479 166.551 129.485 166.551 110.431C166.551 89.4342 151.032 75.6294 133.065 75.6294C131.395 75.6294 129.981 76.0368 128.461 76.2874C124.466 76.9474 120.799 78.1519 117.803 80.2351C114.272 82.6886 111.445 85.9361 109.317 89.7735C107.165 85.9649 104.298 82.6937 100.765 80.2351C97.4439 77.924 93.3342 76.6277 88.7914 76.0904C87.6622 75.9563 86.6443 75.6294 85.4367 75.6294ZM107.804 101.813C118.912 101.244 126.993 106.297 127.474 115.694C127.824 122.542 123.849 126.048 119.184 129.64C116.031 132.197 114.556 133.724 113.462 136.613C112.225 139.072 111.252 140.917 107.935 141.087C104.419 141.267 102.556 139.151 102.41 136.284C102.191 132.024 104.159 129.229 108.922 125.233C112.302 122.385 114.683 120.446 114.514 117.141C114.329 113.518 110.876 111.552 107.08 111.746C103.964 111.906 101.598 113.234 99.8437 115.76C98.5567 117.222 97.5377 118.034 95.699 118.128C92.6618 118.283 90.9551 116.214 90.8313 113.786C90.7045 111.317 92.0204 108.771 94.1201 106.746C96.9468 104.047 101.57 102.131 107.804 101.813ZM108.067 145.495C111.903 145.299 115.174 147.593 115.37 151.415C115.565 155.238 112.56 157.864 108.725 158.06C104.889 158.256 101.619 155.961 101.423 152.139C101.227 148.316 104.231 145.691 108.067 145.495Z" fill="#9FE6E5"/>
</g>
<defs>
<filter id="filter0_d" x="0" y="0" width="218.405" height="220.905" filterUnits="userSpaceOnUse" color-interpolation-filters="sRGB">
<feFlood flood-opacity="0" result="BackgroundImageFix"/>
<feColorMatrix in="SourceAlpha" type="matrix" values="0 0 0 0 0 0 0 0 0 0 0 0 0 0 0 0 0 0 127 0"/>
<feOffset dy="4"/>
<feGaussianBlur stdDeviation="2"/>
<feColorMatrix type="matrix" values="0 0 0 0 0 0 0 0 0 0 0 0 0 0 0 0 0 0 0.25 0"/>
<feBlend mode="normal" in2="BackgroundImageFix" result="effect1_dropShadow"/>
<feBlend mode="normal" in="SourceGraphic" in2="effect1_dropShadow" result="shape"/>
</filter>
</defs>
</svg>
